<svg width="1279" height="628" viewBox="0 0 1279 628" fill="none" xmlns="http://www.w3.org/2000/svg">
<path fill-rule="evenodd" clip-rule="evenodd" d="M4.72656 474.794H71.1502V590.538H4.72656V474.794ZM1069.81 507.79H1125.24V605.882H1057.11V558.588H1027.81V456.938H1069.81V507.79ZM945.426 530.697H1011.52V625.449H914.138V562.295H882.8V457.603H945.438V530.697H945.426ZM787.069 534.893H851.274V608.896H776.916V568.595H737.819V439.747H787.069V534.893ZM658.196 572.288H708.135V526.338H658.196V572.288ZM610.8 505.237H652.103V454.942H610.8V505.237ZM524.997 379.594H587.635V486.689H524.997V379.594ZM449.247 447.637H399.22V582.527H449.247V447.637ZM361.188 570.034H320.712V459.898H361.188V570.034ZM202.606 505.237V438.389H252.634V505.237V540.935V619.338H152.528V505.237H202.606Z" fill="#1D1246"/>
<path d="M24.3363 518.439V497.425H94.2502V617.544H24.3363V609.09V608.949H24.1949H-15.3625V518.581H24.1949H24.3363V518.439ZM1085.16 570.573H1116.9V614.991H1085.16H1085.01V615.132V619.689H1025.84V608.235V608.093H1025.7H989.98V480.221H1040.19V514.474V514.616H1040.33H1085V570.432V570.573H1085.14H1085.16ZM929.065 566.969V567.111H929.206H978.265V619.431H899.99V619.336H899.849H870.633V514.629H929.065V566.969ZM819.16 549.268H819.302V549.127V507.025H847.361V549.127V567.376V615.779H803.332V549.268H819.16ZM762.022 517.679V517.82H762.163H784.033V617.639H746.059V610.285V610.143H745.918H704.376H704.235V610.285V620.49H654.578V611.032V610.89H654.436H620.88H620.738V611.032V618.698H499.355V416.727H620.738V462.237V462.379H620.88H667.269V536.634V536.776H667.41H704.376H704.518V536.634V477.573H762.022V517.679ZM424.73 534.468H424.871V534.326V462.365H474.666V610.238H424.871V602.124V601.983H424.73H383.982V534.468H424.73ZM177.922 577.316V577.457H178.064H229.203V626.777H178.205V617.875V617.734H178.064H122.637V518.567H177.922V577.316ZM1171.33 557.619V619.73H1121.62V557.619H1171.33ZM327.198 532.322H367.203V610.238H327.198V532.322ZM235.578 601.969V462.365H298.811V601.969H235.578Z" fill="#3E3270"/>
<path d="M24.3363 518.439V497.425H94.2502V617.544H24.3363V609.09V608.949H24.1949H-15.3625V518.581H24.1949H24.3363V518.439ZM1085.16 570.573H1116.9V614.991H1085.16H1085.01V615.132V619.689H1025.84V608.235V608.093H1025.7H989.98V480.221H1040.19V514.474V514.616H1040.33H1085V570.432V570.573H1085.14H1085.16ZM929.065 566.969V567.111H929.206H978.265V619.431H899.99V619.336H899.849H870.633V514.629H929.065V566.969ZM819.16 549.268H819.302V549.127V507.025H847.361V549.127V567.376V615.779H803.332V549.268H819.16ZM762.022 517.679V517.82H762.163H784.033V617.639H746.059V610.285V610.143H745.918H704.376H704.235V610.285V620.49H654.578V611.032V610.89H654.436H620.88H620.738V611.032V618.698H499.355V416.727H620.738V462.237V462.379H620.88H667.269V536.634V536.776H667.41H704.376H704.518V536.634V477.573H762.022V517.679ZM424.73 534.468H424.871V534.326V462.365H474.666V610.238H424.871V602.124V601.983H424.73H383.982V534.468H424.73ZM177.922 577.316V577.457H178.064H229.203V626.777H178.205V617.875V617.734H178.064H122.637V518.567H177.922V577.316ZM1171.33 557.619V619.73H1121.62V557.619H1171.33ZM327.198 532.322H367.203V610.238H327.198V532.322ZM235.578 601.969V462.365H298.811V601.969H235.578Z" fill="url(#paint0_linear)" fill-opacity="0.2"/>
<path d="M24.3363 518.439V497.425H94.2502V617.544H24.3363V609.09V608.949H24.1949H-15.3625V518.581H24.1949H24.3363V518.439ZM1085.16 570.573H1116.9V614.991H1085.16H1085.01V615.132V619.689H1025.84V608.235V608.093H1025.7H989.98V480.221H1040.19V514.474V514.616H1040.33H1085V570.432V570.573H1085.14H1085.16ZM929.065 566.969V567.111H929.206H978.265V619.431H899.99V619.336H899.849H870.633V514.629H929.065V566.969ZM819.16 549.268H819.302V549.127V507.025H847.361V549.127V567.376V615.779H803.332V549.268H819.16ZM762.022 517.679V517.82H762.163H784.033V617.639H746.059V610.285V610.143H745.918H704.376H704.235V610.285V620.49H654.578V611.032V610.89H654.436H620.88H620.738V611.032V618.698H499.355V416.727H620.738V462.237V462.379H620.88H667.269V536.634V536.776H667.41H704.376H704.518V536.634V477.573H762.022V517.679ZM424.73 534.468H424.871V534.326V462.365H474.666V610.238H424.871V602.124V601.983H424.73H383.982V534.468H424.73ZM177.922 577.316V577.457H178.064H229.203V626.777H178.205V617.875V617.734H178.064H122.637V518.567H177.922V577.316ZM1171.33 557.619V619.73H1121.62V557.619H1171.33ZM327.198 532.322H367.203V610.238H327.198V532.322ZM235.578 601.969V462.365H298.811V601.969H235.578Z" stroke="black" stroke-width="0.282871"/>
<path fill-rule="evenodd" clip-rule="evenodd" d="M23.2495 497.167H93.4463V617.569H23.2495V608.974H-16.4492V518.323H23.2495V497.167ZM1120.54 619.755H1170.53V557.361H1120.54V619.755ZM1084.21 570.315H1116.1V615.016H1084.21V619.714H1024.76V608.118H988.893V479.963H1039.38V514.358H1084.2V570.315H1084.21ZM928.261 566.853H977.461V619.456H898.904V619.361H869.546V514.372H928.261V566.853ZM846.557 549.011V506.768H818.215V549.011H802.245V615.804H846.557V567.26V549.011ZM761.218 517.563H783.229V617.664H744.972V610.169H703.431V620.516H653.491V610.915H619.934V618.723H498.268V416.47H619.934V462.121H666.465V536.518H703.431V477.316H761.218V517.563ZM423.785 534.21H382.895V602.008H423.785V610.264H473.862V462.107H423.785V534.21ZM326.111 532.064H366.399V610.264H326.111V532.064ZM298.007 462.107H234.492V601.994H298.007V462.107ZM228.399 577.2H177.118V518.309H121.55V617.759H177.118V626.802H228.399V577.2Z" fill="#3E3270"/>
<path fill-rule="evenodd" clip-rule="evenodd" d="M23.2495 497.167H93.4463V617.569H23.2495V608.974H-16.4492V518.323H23.2495V497.167ZM1120.54 619.755H1170.53V557.361H1120.54V619.755ZM1084.21 570.315H1116.1V615.016H1084.21V619.714H1024.76V608.118H988.893V479.963H1039.38V514.358H1084.2V570.315H1084.21ZM928.261 566.853H977.461V619.456H898.904V619.361H869.546V514.372H928.261V566.853ZM846.557 549.011V506.768H818.215V549.011H802.245V615.804H846.557V567.26V549.011ZM761.218 517.563H783.229V617.664H744.972V610.169H703.431V620.516H653.491V610.915H619.934V618.723H498.268V416.47H619.934V462.121H666.465V536.518H703.431V477.316H761.218V517.563ZM423.785 534.21H382.895V602.008H423.785V610.264H473.862V462.107H423.785V534.21ZM326.111 532.064H366.399V610.264H326.111V532.064ZM298.007 462.107H234.492V601.994H298.007V462.107ZM228.399 577.2H177.118V518.309H121.55V617.759H177.118V626.802H228.399V577.2Z" fill="url(#paint1_linear)" fill-opacity="0.2"/>
<path fill-rule="evenodd" clip-rule="evenodd" d="M1179.76 617.172V601.489H1162.8V588.32H1162.6V574.746L1142.36 563.28V527.85L1102.56 543.938V599.478L1092.87 603.64V553.365V545.656V532.752V523.339V502.056L1078.52 523.339H1068.64V532.752H1064.18V604.38H1055.96V581.393H1046.37V566.688L1038.01 561.911V545.656L1014.83 569.592V499.682L967.664 522.515V533.785H952.649V609.226H928.333V592.97H906.197V594.409H905.01V585.15H889.247V470.173H896.51V462.254H891.956V454.336H884.642V403.893C883.881 404.508 883.12 405.08 882.359 405.639V402.245V391.967V337.404L879.508 391.967V400.611V407.957C877.702 409.507 875.999 411.099 874.374 412.635C869.291 418.082 864.441 423.85 859.939 429.813C854.095 437.578 848.678 445.747 843.84 454.336H841.041H835.249H821.898C826.696 454.434 831.302 456.04 835.249 458.763V463.288H840.28C819.795 503.271 811.023 549.524 815.848 595.708H793.686V569.732L780.438 551.661V530.042H761.205V595.519H736.786V567.679H722.531C722.531 545.558 722.531 552.876 722.531 520.993L716.598 508.647V474.656H722.531C722.531 456.808 722.531 439.016 722.531 421.182V399.899H721.151L719.59 346.314L718.029 399.899H716.649V426.894L679.227 463.246V567.679H669.772V591.113L653.956 596.615V551.954L640.605 546.871V499.612H634.336V491.693H622.752V493.593H616.909V491.693H605.325V493.593H599.43V491.693H587.846V499.612H581.628V581.058H568.238V589.409L557.841 592.174V557.415L542.98 546.228V480.954L528.688 476.639V364.078L519.903 361.397V253.416L509.402 250.232V203.951L498.902 200.809V155.407L492.775 153.55L489.292 0.0563965L485.77 151.441V174.679L479.643 176.425V224.55L471.142 226.91V301.89L464.254 303.789V415.792L453.998 418.613V512.921L440.841 516.622V576.533H428.354V593.323L409.83 592.873V581.002L404.321 577.357V561.828H394.827V571.087L382.856 563.154V497.042H376.252V492.308H365.609L362.759 482.379H352.116V440.622H345.654V434.198H334.96V422.677H332.818V363.715H331.399V422.691H329.258V591.075L313.353 593.487V483.622H304.284V472.002H262.102V483.622V543.016H261.625V552.527H245.578V582.049L232.368 571.296V505.114H190.186V611.489L175.326 611.461V543.589H142.264V585.96L110.866 601.894V534.12H50.5471V559.426L36.4865 565.598V597.733H6.70105V570.891H-23.0199V597.174L-33.7524 593.683V534.134H-66.0017V565.556L-80.4364 572.246V621.306L-143 627.255H-80.4493H299.769H313.353H334.87H619.811H640.618H653.969H669.784H678.002H686.167H1278.99L1179.76 617.172Z" fill="#7758DE"/>
<path fill-rule="evenodd" clip-rule="evenodd" d="M1179.76 617.172V601.489H1162.8V588.32H1162.6V574.746L1142.36 563.28V527.85L1102.56 543.938V599.478L1092.87 603.64V553.365V545.656V532.752V523.339V502.056L1078.52 523.339H1068.64V532.752H1064.18V604.38H1055.96V581.393H1046.37V566.688L1038.01 561.911V545.656L1014.83 569.592V499.682L967.664 522.515V533.785H952.649V609.226H928.333V592.97H906.197V594.409H905.01V585.15H889.247V470.173H896.51V462.254H891.956V454.336H884.642V403.893C883.881 404.508 883.12 405.08 882.359 405.639V402.245V391.967V337.404L879.508 391.967V400.611V407.957C877.702 409.507 875.999 411.099 874.374 412.635C869.291 418.082 864.441 423.85 859.939 429.813C854.095 437.578 848.678 445.747 843.84 454.336H841.041H835.249H821.898C826.696 454.434 831.302 456.04 835.249 458.763V463.288H840.28C819.795 503.271 811.023 549.524 815.848 595.708H793.686V569.732L780.438 551.661V530.042H761.205V595.519H736.786V567.679H722.531C722.531 545.558 722.531 552.876 722.531 520.993L716.598 508.647V474.656H722.531C722.531 456.808 722.531 439.016 722.531 421.182V399.899H721.151L719.59 346.314L718.029 399.899H716.649V426.894L679.227 463.246V567.679H669.772V591.113L653.956 596.615V551.954L640.605 546.871V499.612H634.336V491.693H622.752V493.593H616.909V491.693H605.325V493.593H599.43V491.693H587.846V499.612H581.628V581.058H568.238V589.409L557.841 592.174V557.415L542.98 546.228V480.954L528.688 476.639V364.078L519.903 361.397V253.416L509.402 250.232V203.951L498.902 200.809V155.407L492.775 153.55L489.292 0.0563965L485.77 151.441V174.679L479.643 176.425V224.55L471.142 226.91V301.89L464.254 303.789V415.792L453.998 418.613V512.921L440.841 516.622V576.533H428.354V593.323L409.83 592.873V581.002L404.321 577.357V561.828H394.827V571.087L382.856 563.154V497.042H376.252V492.308H365.609L362.759 482.379H352.116V440.622H345.654V434.198H334.96V422.677H332.818V363.715H331.399V422.691H329.258V591.075L313.353 593.487V483.622H304.284V472.002H262.102V483.622V543.016H261.625V552.527H245.578V582.049L232.368 571.296V505.114H190.186V611.489L175.326 611.461V543.589H142.264V585.96L110.866 601.894V534.12H50.5471V559.426L36.4865 565.598V597.733H6.70105V570.891H-23.0199V597.174L-33.7524 593.683V534.134H-66.0017V565.556L-80.4364 572.246V621.306L-143 627.255H-80.4493H299.769H313.353H334.87H619.811H640.618H653.969H669.784H678.002H686.167H1278.99L1179.76 617.172Z" fill="url(#paint2_linear)"/>
<defs>
<linearGradient id="paint0_linear" x1="577.984" y1="-176.691" x2="577.984" y2="466.935" gradientUnits="userSpaceOnUse">
<stop stop-color="white"/>
<stop offset="1" stop-color="white" stop-opacity="0"/>
</linearGradient>
<linearGradient id="paint1_linear" x1="577.039" y1="-176.807" x2="577.039" y2="466.819" gradientUnits="userSpaceOnUse">
<stop stop-color="white"/>
<stop offset="1" stop-color="white" stop-opacity="0"/>
</linearGradient>
<linearGradient id="paint2_linear" x1="567.993" y1="368.742" x2="567.993" y2="668.998" gradientUnits="userSpaceOnUse">
<stop stop-color="#9E86F9"/>
<stop offset="1" stop-color="#784FEB"/>
</linearGradient>
</defs>
</svg>
