<svg width="34" height="34" viewBox="0 0 34 34" fill="none" xmlns="http://www.w3.org/2000/svg">
<path fill-rule="evenodd" clip-rule="evenodd" d="M17 26C12.0294 26 8 21.9706 8 17C8 12.0294 12.0294 8 17 8C21.9706 8 26 12.0294 26 17C26 21.9706 21.9706 26 17 26ZM17 24.3636C21.0668 24.3636 24.3636 21.0668 24.3636 17C24.3636 12.9332 21.0668 9.63636 17 9.63636C12.9332 9.63636 9.63636 12.9332 9.63636 17C9.63636 21.0668 12.9332 24.3636 17 24.3636ZM21.0909 16.1817H17.8182V12.0908H16.1818V17.8181H21.0909V16.1817Z" fill="white"/>
</svg>
