<svg width="193" height="41" viewBox="0 0 193 41" fill="none" xmlns="http://www.w3.org/2000/svg">
<path d="M21.3656 8.29213C23.7574 8.29213 26.0954 9.00135 28.084 10.3301C30.0726 11.6589 31.6226 13.5475 32.5378 15.7572C33.4531 17.9668 33.6926 20.3982 33.226 22.744C32.7594 25.0897 31.6077 27.2445 29.9165 28.9356C28.2253 30.6268 26.0706 31.7786 23.7248 32.2452C21.3791 32.7118 18.9476 32.4723 16.738 31.557C14.5283 30.6417 12.6397 29.0918 11.3109 27.1032C9.98217 25.1145 9.27295 22.7765 9.27295 20.3848H15.017C15.017 21.6405 15.3893 22.8679 16.0869 23.912C16.7845 24.956 17.776 25.7697 18.9361 26.2502C20.0962 26.7307 21.3727 26.8565 22.6042 26.6115C23.8357 26.3665 24.967 25.7619 25.8548 24.874C26.7427 23.9861 27.3474 22.8549 27.5923 21.6234C27.8373 20.3919 27.7116 19.1154 27.231 17.9553C26.7505 16.7952 25.9368 15.8037 24.8928 15.1061C23.8487 14.4085 22.6213 14.0362 21.3656 14.0362V8.29213Z" fill="#F34C3A"/>
<path d="M41.75 20.4999C41.75 24.5544 40.5477 28.5179 38.2951 31.8891C36.0426 35.2603 32.8409 37.8878 29.095 39.4394C25.3491 40.991 21.2273 41.397 17.2507 40.606C13.274 39.815 9.62129 37.8626 6.75432 34.9956C3.88734 32.1286 1.93491 28.4759 1.14391 24.4993C0.352917 20.5226 0.758884 16.4008 2.31048 12.6549C3.86208 8.90902 6.48962 5.70736 9.86082 3.45479C13.232 1.20222 17.1955 -8.01086e-05 21.25 -8.01086e-05L21.25 5.74855C18.3325 5.74855 15.4804 6.6137 13.0546 8.2346C10.6287 9.8555 8.73802 12.1593 7.62152 14.8548C6.50503 17.5503 6.2129 20.5163 6.78209 23.3778C7.35127 26.2392 8.7562 28.8677 10.8192 30.9307C12.8822 32.9937 15.5107 34.3986 18.3722 34.9678C21.2336 35.537 24.1996 35.2449 26.8951 34.1284C29.5906 33.0119 31.8944 31.1212 33.5153 28.6953C35.1362 26.2695 36.0014 23.4175 36.0014 20.4999H41.75Z" fill="#784FEB"/>
<circle cx="21.4232" cy="20.3272" r="3.74298" fill="#EBB430"/>
<path d="M57.5012 10.2062H66.9831C67.9486 10.2062 68.8413 10.3426 69.661 10.6154C70.4808 10.87 71.1821 11.2338 71.7651 11.7067C72.348 12.1796 72.8035 12.7526 73.1314 13.4255C73.4593 14.0803 73.6232 14.7988 73.6232 15.5809C73.6232 16.363 73.4228 17.0996 73.0221 17.7908C72.6395 18.4638 72.1112 19.0367 71.4372 19.5096C72.2752 19.9643 72.9492 20.5555 73.4593 21.283C73.9693 22.0106 74.2244 22.8109 74.2244 23.6839C74.2244 25.3573 73.5959 26.7123 72.3389 27.7491C71.082 28.7858 69.4515 29.3042 67.4477 29.3042H57.5012V10.2062ZM66.6826 14.0531H62.2012V17.8181H66.6826C67.3566 17.8181 67.894 17.6453 68.2948 17.2997C68.7138 16.9541 68.9232 16.4994 68.9232 15.9356C68.9232 15.3717 68.7138 14.917 68.2948 14.5714C67.894 14.2258 67.3566 14.0531 66.6826 14.0531ZM67.0924 25.4573C67.8211 25.4573 68.395 25.2754 68.8139 24.9116C69.2512 24.5479 69.4698 24.0568 69.4698 23.4384C69.4698 22.82 69.2512 22.3289 68.8139 21.9651C68.395 21.6013 67.8211 21.4194 67.0924 21.4194H62.2012V25.4573H67.0924Z" fill="white"/>
<path d="M76.7678 29.3042V10.2062H91.8514V14.2713H81.4677V17.709H88.3264V21.6377H81.4677V25.239H91.9607V29.3042H76.7678Z" fill="white"/>
<path d="M113.389 19.7552C113.389 21.1193 113.125 22.4107 112.597 23.6293C112.068 24.8298 111.349 25.8756 110.438 26.7669C109.527 27.6399 108.443 28.3311 107.186 28.8404C105.929 29.3497 104.59 29.6043 103.169 29.6043C101.748 29.6043 100.409 29.3497 99.1524 28.8404C97.8954 28.3311 96.8115 27.6399 95.9007 26.7669C94.9898 25.8756 94.2703 24.8298 93.742 23.6293C93.2137 22.4107 92.9495 21.1193 92.9495 19.7552C92.9495 18.391 93.2137 17.1087 93.742 15.9083C94.2703 14.6897 94.9898 13.6438 95.9007 12.7708C96.8115 11.8795 97.8954 11.1793 99.1524 10.67C100.409 10.1607 101.748 9.90605 103.169 9.90605C104.59 9.90605 105.929 10.1607 107.186 10.67C108.443 11.1793 109.527 11.8795 110.438 12.7708C111.349 13.6438 112.068 14.6897 112.597 15.9083C113.125 17.1087 113.389 18.391 113.389 19.7552ZM108.552 19.7552C108.552 18.9731 108.416 18.2455 108.142 17.5725C107.869 16.8814 107.487 16.2902 106.995 15.7992C106.521 15.3081 105.956 14.9261 105.301 14.6533C104.645 14.3623 103.934 14.2167 103.169 14.2167C102.404 14.2167 101.694 14.3623 101.038 14.6533C100.382 14.9261 99.8082 15.3081 99.3164 15.7992C98.8427 16.2902 98.4693 16.8814 98.196 17.5725C97.9228 18.2455 97.7861 18.9731 97.7861 19.7552C97.7861 20.5373 97.9228 21.2739 98.196 21.9651C98.4693 22.6381 98.8427 23.2201 99.3164 23.7112C99.8082 24.2023 100.382 24.5933 101.038 24.8844C101.694 25.1572 102.404 25.2936 103.169 25.2936C103.934 25.2936 104.645 25.1572 105.301 24.8844C105.956 24.5933 106.521 24.2023 106.995 23.7112C107.487 23.2201 107.869 22.6381 108.142 21.9651C108.416 21.2739 108.552 20.5373 108.552 19.7552Z" fill="white"/>
<path d="M115.888 10.2062H120.315L129.004 21.283V10.2062H133.431V29.3042H129.277L120.315 17.7908V29.3042H115.888V10.2062Z" fill="white"/>
<path d="M135.502 14.3532V10.2062H152.717V14.3532H146.46V29.3042H141.76V14.3532H135.502Z" fill="white"/>
<path d="M173.457 19.7552C173.457 21.1193 173.193 22.4107 172.664 23.6293C172.136 24.8298 171.417 25.8756 170.506 26.7669C169.595 27.6399 168.511 28.3311 167.254 28.8404C165.997 29.3497 164.658 29.6043 163.237 29.6043C161.816 29.6043 160.477 29.3497 159.22 28.8404C157.963 28.3311 156.879 27.6399 155.969 26.7669C155.058 25.8756 154.338 24.8298 153.81 23.6293C153.282 22.4107 153.017 21.1193 153.017 19.7552C153.017 18.391 153.282 17.1087 153.81 15.9083C154.338 14.6897 155.058 13.6438 155.969 12.7708C156.879 11.8795 157.963 11.1793 159.22 10.67C160.477 10.1607 161.816 9.90605 163.237 9.90605C164.658 9.90605 165.997 10.1607 167.254 10.67C168.511 11.1793 169.595 11.8795 170.506 12.7708C171.417 13.6438 172.136 14.6897 172.664 15.9083C173.193 17.1087 173.457 18.391 173.457 19.7552ZM168.62 19.7552C168.62 18.9731 168.484 18.2455 168.21 17.5725C167.937 16.8814 167.555 16.2902 167.063 15.7992C166.589 15.3081 166.024 14.9261 165.369 14.6533C164.713 14.3623 164.002 14.2167 163.237 14.2167C162.472 14.2167 161.762 14.3623 161.106 14.6533C160.45 14.9261 159.876 15.3081 159.384 15.7992C158.911 16.2902 158.537 16.8814 158.264 17.5725C157.991 18.2455 157.854 18.9731 157.854 19.7552C157.854 20.5373 157.991 21.2739 158.264 21.9651C158.537 22.6381 158.911 23.2201 159.384 23.7112C159.876 24.2023 160.45 24.5933 161.106 24.8844C161.762 25.1572 162.472 25.2936 163.237 25.2936C164.002 25.2936 164.713 25.1572 165.369 24.8844C166.024 24.5933 166.589 24.2023 167.063 23.7112C167.555 23.2201 167.937 22.6381 168.21 21.9651C168.484 21.2739 168.62 20.5373 168.62 19.7552Z" fill="white"/>
<path d="M175.956 29.3042V10.2062H186.039C186.968 10.2062 187.833 10.3608 188.635 10.67C189.436 10.9792 190.12 11.4157 190.684 11.9796C191.267 12.5252 191.723 13.18 192.051 13.9439C192.378 14.6897 192.542 15.5081 192.542 16.3994C192.542 17.2542 192.378 18.0545 192.051 18.8003C191.723 19.546 191.267 20.1917 190.684 20.7374C190.101 21.2648 189.409 21.6832 188.607 21.9924C187.824 22.3016 186.968 22.4562 186.039 22.4562H180.656V29.3042H175.956ZM185.492 14.2167H180.656V18.582H185.492C186.166 18.582 186.713 18.3819 187.132 17.9818C187.569 17.5816 187.788 17.0633 187.788 16.4267C187.788 15.7719 187.569 15.2444 187.132 14.8443C186.713 14.4259 186.166 14.2167 185.492 14.2167Z" fill="white"/>
</svg>
